<svg width="48" height="47" viewBox="0 0 48 47" fill="none" xmlns="http://www.w3.org/2000/svg">
<path d="M27.9 28.875L22.05 27.525C21.675 27.45 21.375 27.6 21.225 27.9L19.05 32.1L18.375 30.15L19.5 27.75C19.65 27.525 19.575 27.225 19.425 27C19.275 26.775 19.05 26.625 18.825 26.625H13.5C13.275 26.625 12.975 26.775 12.9 27C12.75 27.225 12.75 27.525 12.825 27.75L13.95 30.15L13.275 32.1L11.25 27.9C11.1 27.6 10.725 27.45 10.425 27.525L4.575 28.875C1.875 29.55 0 31.95 0 34.725V45.9C0 46.35 0.3 46.65 0.75 46.65H31.8C32.25 46.65 32.55 46.35 32.55 45.9V34.725C32.55 31.95 30.675 29.55 27.9 28.875ZM17.7 28.275L17.1 29.4H15.3L14.7 28.275H17.7ZM15.45 30.9H17.1L18.15 33.975L16.275 37.725L14.4 33.975L15.45 30.9ZM31.05 45.15H1.5V34.725C1.5 32.625 2.925 30.825 4.95 30.375L10.2 29.175L12.9 34.425L15.6 39.825C15.825 40.35 16.65 40.35 16.95 39.825L22.35 29.175L27.6 30.375C29.625 30.825 31.05 32.625 31.05 34.725V45.15Z" fill="#0E7952"/>
<path d="M16.275 24.8251C21 24.8251 23.925 21.3001 23.925 15.5251C23.925 9.7501 21 6.2251 16.275 6.2251C11.55 6.2251 8.625 9.7501 8.625 15.5251C8.625 21.3001 11.55 24.8251 16.275 24.8251ZM16.275 7.7251C21.975 7.7251 22.425 13.6501 22.425 15.5251C22.425 17.4001 21.975 23.3251 16.275 23.3251C10.575 23.3251 10.125 17.4001 10.125 15.5251C10.125 13.6501 10.575 7.7251 16.275 7.7251Z" fill="#0E7952"/>
<path d="M45.675 0H28.575C27.3 0 26.25 1.05 26.25 2.325V18.45C26.25 18.75 26.4 18.975 26.625 19.125C26.775 19.2 26.85 19.2 27 19.2C27.15 19.2 27.3 19.2 27.375 19.125L32.325 16.05H45.675C46.95 16.05 48 15 48 13.725V2.325C48 1.05 46.95 0 45.675 0ZM46.5 13.65C46.5 14.1 46.125 14.475 45.675 14.475H32.175C32.025 14.475 31.875 14.55 31.8 14.55L27.75 17.1V2.325C27.75 1.875 28.125 1.5 28.575 1.5H45.675C46.125 1.5 46.5 1.875 46.5 2.325V13.65Z" fill="#0E7952"/>
<path d="M32.3999 5.25H41.8499C42.2999 5.25 42.5999 4.95 42.5999 4.5C42.5999 4.05 42.2999 3.75 41.8499 3.75H32.3999C31.9499 3.75 31.6499 4.05 31.6499 4.5C31.6499 4.95 31.9499 5.25 32.3999 5.25Z" fill="#0E7952"/>
<path d="M44.325 7.19995H29.925C29.475 7.19995 29.175 7.49995 29.175 7.94995C29.175 8.39995 29.475 8.69995 29.925 8.69995H44.325C44.775 8.69995 45.075 8.39995 45.075 7.94995C45.075 7.49995 44.7 7.19995 44.325 7.19995Z" fill="#0E7952"/>
<path d="M41.8499 10.7251H32.3999C31.9499 10.7251 31.6499 11.0251 31.6499 11.4751C31.6499 11.9251 31.9499 12.2251 32.3999 12.2251H41.8499C42.2999 12.2251 42.5999 11.9251 42.5999 11.4751C42.5999 11.0251 42.2249 10.7251 41.8499 10.7251Z" fill="#0E7952"/>
</svg>
