<svg width="48" height="48" viewBox="0 0 48 48" fill="none" xmlns="http://www.w3.org/2000/svg">
<path fill-rule="evenodd" clip-rule="evenodd" d="M35.6556 9.37968H47.4C47.7305 9.37968 48 9.64687 48 9.97968V47.3999C48 47.7327 47.7305 47.9999 47.4 47.9999H0.6C0.269532 47.9999 0 47.7327 0 47.3999V9.97968C0 9.64687 0.269532 9.37968 0.6 9.37968H12.3444V5.4C12.3444 2.42346 14.7679 0 17.7444 0H30.2556C33.2321 0 35.6556 2.42346 35.6556 5.4V9.37968ZM17.7444 1.2C15.4288 1.2 13.5444 3.08436 13.5444 5.4V9.37968H34.4556V5.4C34.4556 3.08436 32.5712 1.2 30.2556 1.2H17.7444ZM46.8 21.0821V10.5797H1.19976V21.0821H15.553C15.8506 18.5743 17.9858 16.6219 20.5733 16.6219H27.4289C30.0164 16.6219 32.1515 18.5743 32.4492 21.0821H46.8ZM27.4268 25.5399C29.555 25.5399 31.287 23.8102 31.287 21.6821C31.287 19.5539 29.555 17.8219 27.4292 17.8243H20.5736C18.4455 17.8243 16.7135 19.5539 16.7135 21.6821C16.7135 23.8102 18.4455 25.5422 20.5736 25.5422L27.4268 25.5399ZM1.2 22.2821V46.7999H46.8002V22.2821H32.4494C32.1518 24.7876 30.0166 26.7399 27.4291 26.7399H20.5735C17.9884 26.7399 15.8509 24.7899 15.5532 22.2821H1.2ZM39.5132 32.2523H42.996C43.3288 32.2523 43.596 32.5218 43.596 32.8523V39.5411C43.596 39.8739 43.3265 40.1411 42.996 40.1411H39.5132V43.6239C39.5132 43.9567 39.2436 44.2239 38.9132 44.2239H32.2262C31.8957 44.2239 31.6262 43.9567 31.6262 43.6239V40.1411H28.1434C27.8129 40.1411 27.5434 39.8739 27.5434 39.5411V32.8523C27.5434 32.5195 27.8129 32.2523 28.1434 32.2523H31.6262V28.7695C31.6262 28.4367 31.8957 28.1695 32.2262 28.1695H38.9132C39.2436 28.1695 39.5132 28.4367 39.5132 28.7695V32.2523ZM38.9132 38.9393H42.396V33.4502H38.9132C38.5827 33.4502 38.3132 33.1831 38.3132 32.8503V29.3674H32.8265V32.8503C32.8265 33.1831 32.5569 33.4502 32.2265 33.4502H28.7437V38.9393H32.2265C32.5569 38.9393 32.8265 39.2065 32.8265 39.5393V43.0221H38.3132V39.5393C38.3132 39.2065 38.5827 38.9393 38.9132 38.9393Z" fill="#0E7952"/>
</svg>
