<svg width="48" height="45" viewBox="0 0 48 45" fill="none" xmlns="http://www.w3.org/2000/svg">
<path d="M47.5837 22.0944L38.3774 20.1534C39.3671 19.1052 40.1306 17.9196 40.6699 16.6592H42.6674C42.9562 16.6592 43.1885 16.4249 43.1885 16.1381C43.1885 15.8493 42.9542 15.617 42.6674 15.617H41.0597C42.3826 11.4846 41.4091 6.77062 38.1351 3.49658C33.5946 -1.04385 26.2788 -1.16303 21.5953 3.14312C16.9094 -1.16303 9.5958 -1.0439 5.05547 3.49658C1.78144 6.77062 0.80791 11.4847 2.13087 15.617H0.521096C0.23227 15.617 0 15.8513 0 16.1381C0 16.427 0.234291 16.6592 0.521096 16.6592H2.51866C3.10036 18.0206 3.94462 19.2951 5.05346 20.4059L21.2256 36.5781C21.3266 36.6791 21.4619 36.7316 21.5952 36.7316C21.7285 36.7316 21.8618 36.6811 21.9649 36.5781L27.5352 31.0078V32.5529C27.5352 35.217 28.6178 37.9515 30.585 40.2504C32.4897 42.4782 35.0689 44.0597 37.6626 44.5889C37.6969 44.5949 37.7312 44.599 37.7676 44.599C37.8019 44.599 37.8383 44.5949 37.8726 44.5889C40.466 44.0597 43.0453 42.4782 44.9502 40.2504C46.9174 37.9499 48 35.2171 48 32.5529L47.998 22.6057C47.998 22.3592 47.8261 22.1469 47.5837 22.0944ZM2.59514 11.9512C2.59514 9.0367 3.73024 6.29559 5.79244 4.23355C10.0481 -0.0221337 16.9719 -0.0221337 21.2257 4.23355C21.4297 4.43755 21.7589 4.43755 21.963 4.23355C26.2186 -0.0221337 33.1424 -0.0221337 37.3962 4.23355C40.4683 7.30562 41.3227 11.7692 39.9573 15.6151L27.3922 15.6171C27.1781 15.6171 26.9862 15.7484 26.9074 15.9464L24.4938 22.01L19.182 8.66355C19.1032 8.46561 18.9113 8.33432 18.6972 8.33432C18.4831 8.33432 18.2913 8.46561 18.2125 8.66355L15.4454 15.6175H3.22357C2.81154 14.4561 2.59545 13.2221 2.59545 11.9516L2.59514 11.9512ZM21.5951 35.4714L5.79265 19.6689C4.90392 18.7802 4.18691 17.7622 3.65775 16.6615H15.7984C16.0125 16.6615 16.2044 16.5302 16.2831 16.3322L18.6968 10.2686L24.0086 23.6151C24.0873 23.813 24.2792 23.9443 24.4933 23.9443C24.7074 23.9443 24.8993 23.813 24.978 23.6151L27.7452 16.6611H39.5264C39.0073 17.7498 38.2984 18.7697 37.3976 19.6685L36.8462 20.2199L27.9491 22.0943C27.7087 22.1448 27.535 22.3589 27.535 22.6053V29.5313L21.5951 35.4714ZM46.9555 32.5528C46.9555 37.4609 42.7584 42.4701 37.7673 43.5466C32.7764 42.4701 28.5791 37.4628 28.5791 32.5528L28.5771 23.0295L37.7653 21.0926L46.9535 23.0295L46.9555 32.5528ZM36.0868 33.8737L43.0289 26.9317C43.2329 26.7277 43.5621 26.7277 43.7661 26.9317C43.9702 27.1357 43.9701 27.4649 43.7661 27.6689L36.4543 34.9807C36.3534 35.0817 36.218 35.1342 36.0847 35.1342C35.9514 35.1342 35.8181 35.0837 35.7151 34.9807L32.0593 31.3249C31.8553 31.1209 31.8553 30.7917 32.0593 30.5877C32.2633 30.3837 32.5925 30.3837 32.7966 30.5877L36.0868 33.8737Z" fill="#0E7952"/>
</svg>
