<svg width="48" height="48" viewBox="0 0 48 48" fill="none" xmlns="http://www.w3.org/2000/svg">
<path d="M6.75595 19.8372C6.75595 19.5482 6.99037 19.3158 7.27733 19.3158H31.5197C31.8087 19.3158 32.0411 19.5502 32.0411 19.8372C32.0411 20.1262 31.8066 20.3586 31.5197 20.3586H7.2794C6.99041 20.3586 6.75595 20.1242 6.75595 19.8372ZM7.27935 24.8611H31.5217C31.8107 24.8611 32.0431 24.6267 32.0431 24.3397C32.0431 24.0507 31.8086 23.8183 31.5217 23.8183L7.27935 23.8163C6.99036 23.8163 6.75796 24.0507 6.75796 24.3377C6.75594 24.6267 6.99037 24.8611 7.27935 24.8611ZM13.8046 12.1214V8.73845C13.8046 8.44947 14.0391 8.21707 14.326 8.21707H17.1876V5.35552C17.1876 5.06654 17.422 4.83414 17.7089 4.83414H21.0919C21.3809 4.83414 21.6133 5.06856 21.6133 5.35552V8.21707H24.4749C24.7638 8.21707 24.9962 8.4515 24.9962 8.73845V12.1214C24.9962 12.4104 24.7618 12.6428 24.4749 12.6428L21.6133 12.6448V15.5064C21.6133 15.7954 21.3789 16.0278 21.0919 16.0278H17.7089C17.42 16.0278 17.1876 15.7933 17.1876 15.5064V12.6448H14.326C14.037 12.6448 13.8046 12.4104 13.8046 12.1214ZM14.8474 11.6H17.7089C17.9979 11.6 18.2303 11.8345 18.2303 12.1214V14.983H20.5685V12.1214C20.5685 11.8324 20.8029 11.6 21.0899 11.6H23.9514V9.2619H21.0899C20.8009 9.2619 20.5685 9.02748 20.5685 8.74052V5.87897H18.2303V8.74052C18.2303 9.02951 17.9959 9.2619 17.7089 9.2619H14.8474V11.6ZM48 27.7589V36.7074C48 39.1163 47.0219 41.5878 45.2435 43.6673C43.5217 45.68 41.1917 47.1088 38.8476 47.5878C38.8132 47.5938 38.7789 47.5979 38.7425 47.5979C38.7081 47.5979 38.6718 47.5938 38.6374 47.5878C36.6044 47.1735 34.5835 46.0418 32.9585 44.4372L0.521382 44.4352C0.232397 44.4352 0 44.2008 0 43.9138V0.521382C0 0.232397 0.23442 0 0.521382 0H38.2773C38.5663 0 38.7987 0.23442 38.7987 0.521382V25.4006C38.8149 25.4026 38.8331 25.4026 38.8492 25.4066L47.5836 27.2477C47.8261 27.2982 48 27.5123 48 27.7589ZM1.0446 43.3905H32.0187C30.7778 41.8546 29.9614 40.1227 29.6421 38.3666H7.27872C6.98974 38.3666 6.75734 38.1322 6.75734 37.8452C6.75734 37.5562 6.99176 37.3238 7.27872 37.3238H29.5107C29.4965 37.1177 29.4864 36.9115 29.4864 36.7054V33.8661H7.27879C6.98981 33.8661 6.75741 33.6316 6.75741 33.3447C6.75741 33.0557 6.99183 32.8233 7.27879 32.8233H29.4864V29.3656L7.27879 29.3636C6.98981 29.3636 6.75741 29.1291 6.75741 28.8422C6.75741 28.5532 6.99183 28.3208 7.27879 28.3208H29.4864V27.759C29.4864 27.5125 29.6602 27.2982 29.9007 27.2477L37.7561 25.5926V1.04505H1.04465L1.0446 43.3905ZM46.955 28.1815L38.7421 26.4516L30.5313 28.1815V36.7058C30.5313 41.0932 34.282 45.5716 38.7442 46.5396C43.2063 45.5716 46.957 41.0935 46.957 36.7058L46.955 28.1815ZM34.2577 34.9536C34.0536 34.7495 33.7242 34.7495 33.5201 34.9536C33.316 35.1577 33.316 35.4871 33.5201 35.6912L36.7555 38.9267C36.8566 39.0277 36.992 39.0802 37.1253 39.0802C37.2587 39.0802 37.3921 39.0297 37.4952 38.9267L43.9661 32.4557C44.1702 32.2516 44.1702 31.9222 43.9661 31.7181C43.762 31.5139 43.4327 31.5139 43.2285 31.7181L37.1254 37.8191L34.2577 34.9536Z" fill="#0E7952"/>
</svg>
